<svg width="238" height="142" viewBox="0 0 238 142" fill="none" xmlns="http://www.w3.org/2000/svg">
<path d="M62.7749 45V11.3944H70.3246V38.371H83.4906V45H62.7749ZM92.0815 17.2869C90.7005 17.2869 89.6724 16.934 88.9972 16.2281C88.3527 15.4916 88.0305 14.5709 88.0305 13.466C88.0305 12.3305 88.3527 11.4098 88.9972 10.7039C89.6724 9.96736 90.7005 9.59908 92.0815 9.59908C93.4626 9.59908 94.4754 9.96736 95.1199 10.7039C95.795 11.4098 96.1326 12.3305 96.1326 13.466C96.1326 14.5709 95.795 15.4916 95.1199 16.2281C94.4754 16.934 93.4626 17.2869 92.0815 17.2869ZM89.2274 45V25.2049H85.8668V19.7728H96.593V45H89.2274ZM112.981 45.7826C109.39 45.7826 106.582 45.046 104.556 43.5729C102.531 42.0998 101.457 40.0282 101.334 37.3582H107.871C107.963 38.1561 108.439 38.8773 109.298 39.5218C110.157 40.1356 111.431 40.4425 113.119 40.4425C114.377 40.4425 115.436 40.2277 116.295 39.798C117.155 39.3684 117.584 38.7239 117.584 37.8646C117.584 37.128 117.262 36.5449 116.617 36.1152C115.973 35.6549 114.822 35.3326 113.165 35.1485L111.185 34.9644C108.147 34.6268 105.861 33.7828 104.326 32.4324C102.822 31.0821 102.07 29.3174 102.07 27.1384C102.07 25.3584 102.515 23.8699 103.405 22.673C104.326 21.4761 105.569 20.5708 107.134 19.957C108.699 19.3432 110.495 19.0363 112.52 19.0363C115.774 19.0363 118.382 19.7575 120.346 21.1999C122.341 22.6116 123.4 24.6679 123.523 27.3686H116.986C116.863 26.5707 116.418 25.8801 115.651 25.297C114.914 24.7139 113.84 24.4224 112.428 24.4224C111.293 24.4224 110.387 24.6372 109.712 25.0668C109.037 25.4965 108.699 26.0796 108.699 26.8162C108.699 27.522 108.991 28.0591 109.574 28.4274C110.157 28.7957 111.109 29.0565 112.428 29.21L114.408 29.3941C117.477 29.7317 119.871 30.6064 121.589 32.0181C123.339 33.3992 124.213 35.2406 124.213 37.5423C124.213 40.0896 123.2 42.0998 121.175 43.5729C119.149 45.046 116.418 45.7826 112.981 45.7826ZM140.448 45.3222C137.901 45.3222 135.845 45.0153 134.279 44.4015C132.714 43.7571 131.563 42.6982 130.827 41.2251C130.121 39.7213 129.768 37.6958 129.768 35.1485V25.1589H125.947V19.7728H129.768V12.9596H136.627V19.7728H143.993V25.1589H136.627V35.4247C136.627 36.6216 136.934 37.5423 137.548 38.1868C138.192 38.8006 139.098 39.1075 140.264 39.1075H143.993V45.3222H140.448ZM156.037 45.6445C153.306 45.6445 151.096 44.9386 149.408 43.5269C147.751 42.1151 146.923 40.1203 146.923 37.5423C146.923 35.7009 147.398 34.1971 148.35 33.0309C149.301 31.834 150.636 30.9593 152.355 30.4069C154.073 29.8238 156.053 29.5322 158.293 29.5322H162.851V29.4402C162.851 26.8622 161.562 25.5732 158.984 25.5732C158.309 25.5732 157.419 25.6039 156.314 25.6653C155.209 25.696 154.058 25.742 152.861 25.8034C151.695 25.8341 150.651 25.8801 149.731 25.9415V19.7268C150.805 19.6347 152.125 19.558 153.69 19.4966C155.255 19.4045 156.697 19.3585 158.017 19.3585C161.884 19.3585 164.83 20.1871 166.856 21.8444C168.912 23.471 169.94 26.0336 169.94 29.5322V45H164.094V40.2584C163.541 42.0077 162.59 43.3427 161.239 44.2634C159.889 45.1841 158.155 45.6445 156.037 45.6445ZM158.247 40.5346C159.444 40.5346 160.488 40.197 161.378 39.5218C162.268 38.8467 162.759 37.5577 162.851 35.6549V33.6294H158.247C156.958 33.6294 155.961 33.9516 155.255 34.5961C154.58 35.2406 154.242 36.0846 154.242 37.128C154.242 38.1408 154.58 38.9694 155.255 39.6139C155.961 40.2277 156.958 40.5346 158.247 40.5346Z" fill="#F1FAEE"/>
<path d="M104.146 82.1535V53.7652H114.542C117.074 53.7652 119.286 54.136 121.179 54.8777C123.071 55.6194 124.644 56.6296 125.897 57.9083C127.176 59.1871 128.135 60.6577 128.774 62.32C129.414 63.9568 129.734 65.6831 129.734 67.499V68.3429C129.734 70.0565 129.414 71.7316 128.774 73.3684C128.135 75.0052 127.176 76.4886 125.897 77.8185C124.644 79.1484 123.071 80.2097 121.179 81.0026C119.286 81.7698 117.074 82.1535 114.542 82.1535H104.146ZM114.887 59.6347H110.437V76.284H114.887C117.521 76.284 119.593 75.5167 121.102 73.9822C122.611 72.4477 123.365 70.4273 123.365 67.921C123.365 65.2867 122.611 63.2535 121.102 61.8213C119.593 60.3635 117.521 59.6347 114.887 59.6347ZM143.4 82.7289C141.61 82.7289 140.024 82.422 138.643 81.8082C137.288 81.1944 136.15 80.376 135.229 79.353C134.308 78.3044 133.618 77.1407 133.157 75.862C132.697 74.5577 132.467 73.2278 132.467 71.8723V71.105C132.467 69.724 132.697 68.3813 133.157 67.077C133.618 65.7727 134.308 64.609 135.229 63.586C136.15 62.563 137.262 61.7574 138.566 61.1692C139.896 60.5554 141.431 60.2485 143.17 60.2485C145.421 60.2485 147.313 60.76 148.848 61.783C150.408 62.7804 151.597 64.0975 152.415 65.7343C153.234 67.3711 153.643 69.1358 153.643 71.0283V73.0999H138.26C138.464 74.5321 138.976 75.6702 139.794 76.5142C140.638 77.3326 141.84 77.7418 143.4 77.7418C144.5 77.7418 145.408 77.5372 146.124 77.128C146.866 76.6932 147.364 76.1433 147.62 75.4784H153.259C152.799 77.6267 151.686 79.3786 149.922 80.734C148.183 82.0639 146.009 82.7289 143.4 82.7289ZM143.17 65.2356C141.84 65.2356 140.753 65.6192 139.909 66.3865C139.091 67.1281 138.566 68.2023 138.336 69.6089H147.773C147.569 68.2023 147.07 67.1281 146.277 66.3865C145.51 65.6192 144.474 65.2356 143.17 65.2356Z" fill="#F1FAEE"/>
<path d="M37.9972 119.729C35.4652 119.729 33.2914 119.294 31.4755 118.425C29.6597 117.529 28.1636 116.366 26.9871 114.934C25.8363 113.476 24.9923 111.916 24.4552 110.253C23.9181 108.565 23.6496 106.929 23.6496 105.343V104.499C23.6496 102.76 23.9309 101.046 24.4936 99.3584C25.0562 97.6449 25.913 96.0976 27.0639 94.7165C28.2403 93.3355 29.7109 92.2358 31.4755 91.4174C33.2658 90.5734 35.3757 90.1514 37.8054 90.1514C40.3373 90.1514 42.5623 90.6245 44.4804 91.5708C46.4241 92.5171 47.9714 93.8342 49.1223 95.5221C50.2987 97.2101 51.0021 99.1666 51.2322 101.392H44.9024C44.6211 99.7292 43.8411 98.4249 42.5623 97.4786C41.2836 96.5068 39.6979 96.0209 37.8054 96.0209C35.299 96.0209 33.3681 96.852 32.0126 98.5144C30.6827 100.151 30.0178 102.3 30.0178 104.959C30.0178 106.724 30.3247 108.284 30.9385 109.64C31.5523 110.969 32.4474 112.005 33.6238 112.747C34.8259 113.489 36.2836 113.859 37.9972 113.859C39.9409 113.859 41.5777 113.386 42.9076 112.44C44.263 111.494 45.0814 110.189 45.3628 108.527H51.6542C51.424 110.599 50.7335 112.478 49.5826 114.166C48.4573 115.854 46.9101 117.21 44.9408 118.233C42.9971 119.23 40.6825 119.729 37.9972 119.729ZM65.7258 119.729C63.2706 119.729 61.1734 119.23 59.4343 118.233C57.7208 117.235 56.4165 115.931 55.5213 114.32C54.6262 112.683 54.1786 110.906 54.1786 108.987V108.105C54.1786 106.136 54.639 104.333 55.5597 102.696C56.506 101.034 57.8359 99.7164 59.5494 98.7446C61.2885 97.7472 63.3473 97.2485 65.7258 97.2485C68.1042 97.2485 70.163 97.7472 71.9021 98.7446C73.6412 99.7164 74.9711 101.034 75.8918 102.696C76.8381 104.333 77.3112 106.136 77.3112 108.105V108.987C77.3112 110.906 76.8509 112.683 75.9302 114.32C75.0351 115.931 73.7307 117.235 72.0172 118.233C70.3037 119.23 68.2065 119.729 65.7258 119.729ZM65.7258 114.55C67.4904 114.55 68.8331 113.987 69.7538 112.862C70.7001 111.711 71.1732 110.279 71.1732 108.565C71.1732 106.801 70.6873 105.343 69.7155 104.192C68.7692 103.016 67.4393 102.427 65.7258 102.427C64.0122 102.427 62.6823 103.016 61.7361 104.192C60.7898 105.343 60.3166 106.801 60.3166 108.565C60.3166 110.279 60.777 111.711 61.6977 112.862C62.6184 113.987 63.9611 114.55 65.7258 114.55ZM81.5949 119V97.9773H86.467V103.31C87.2854 99.32 89.5616 97.3252 93.2955 97.3252H93.5641C96.8121 97.3252 98.9604 98.8469 100.009 101.89C101.083 98.8469 103.244 97.3252 106.492 97.3252H106.761C109.139 97.3252 110.955 98.1436 112.208 99.7804C113.461 101.417 114.088 103.834 114.088 107.031V119H107.95V106.686C107.95 105.535 107.643 104.601 107.029 103.885C106.441 103.169 105.597 102.811 104.497 102.811C103.398 102.811 102.528 103.182 101.889 103.924C101.249 104.665 100.93 105.624 100.93 106.801V119H94.7533V106.686C94.7533 105.535 94.4464 104.601 93.8326 103.885C93.2444 103.169 92.4132 102.811 91.339 102.811C90.2137 102.811 89.3314 103.182 88.692 103.924C88.0526 104.665 87.733 105.624 87.733 106.801V119H81.5949ZM119.321 126.673V97.9773H124.193V103.31C124.806 101.366 125.829 99.8955 127.262 98.898C128.719 97.875 130.42 97.3635 132.364 97.3635C134.308 97.3635 135.995 97.8367 137.428 98.783C138.885 99.7037 140.011 100.97 140.804 102.581C141.622 104.192 142.031 106.008 142.031 108.028V108.911C142.031 110.931 141.648 112.76 140.88 114.396C140.113 116.033 139.013 117.325 137.581 118.271C136.149 119.217 134.41 119.691 132.364 119.691C130.932 119.691 129.615 119.422 128.412 118.885C127.21 118.348 126.226 117.529 125.459 116.43V126.673H119.321ZM130.638 114.55C132.198 114.55 133.451 113.987 134.397 112.862C135.369 111.737 135.855 110.266 135.855 108.45C135.855 106.66 135.369 105.215 134.397 104.115C133.451 103.016 132.198 102.466 130.638 102.466C129.691 102.466 128.809 102.683 127.991 103.118C127.198 103.553 126.546 104.179 126.034 104.998C125.548 105.816 125.305 106.788 125.305 107.913V109.333C125.305 110.432 125.561 111.379 126.072 112.171C126.609 112.939 127.287 113.527 128.106 113.936C128.924 114.345 129.768 114.55 130.638 114.55ZM146.294 119V97.9773H151.166V105.113C151.396 102.734 152.125 100.906 153.353 99.6269C154.606 98.3482 156.307 97.7088 158.455 97.7088H159.261V103.003H157.726C156.013 103.003 154.696 103.463 153.775 104.384C152.88 105.305 152.432 106.609 152.432 108.297V119H146.294ZM168.313 119.537C166.037 119.537 164.196 118.949 162.789 117.772C161.408 116.596 160.717 114.934 160.717 112.785C160.717 111.251 161.114 109.998 161.907 109.026C162.699 108.028 163.812 107.299 165.244 106.839C166.676 106.353 168.326 106.11 170.193 106.11H173.991V106.033C173.991 103.885 172.917 102.811 170.768 102.811C170.206 102.811 169.464 102.837 168.543 102.888C167.623 102.913 166.664 102.952 165.666 103.003C164.694 103.028 163.825 103.067 163.057 103.118V97.939C163.953 97.8623 165.052 97.7983 166.357 97.7472C167.661 97.6704 168.863 97.6321 169.963 97.6321C173.185 97.6321 175.64 98.3226 177.328 99.7037C179.042 101.059 179.899 103.195 179.899 106.11V119H175.027V115.049C174.566 116.506 173.773 117.619 172.648 118.386C171.523 119.153 170.078 119.537 168.313 119.537ZM170.154 115.279C171.152 115.279 172.021 114.998 172.763 114.435C173.505 113.872 173.914 112.798 173.991 111.212V109.524H170.154C169.08 109.524 168.249 109.793 167.661 110.33C167.098 110.867 166.817 111.57 166.817 112.44C166.817 113.284 167.098 113.975 167.661 114.512C168.249 115.023 169.08 115.279 170.154 115.279ZM193.086 119.652C190.093 119.652 187.753 119.038 186.065 117.811C184.377 116.583 183.482 114.857 183.38 112.632H188.827C188.904 113.297 189.301 113.898 190.017 114.435C190.733 114.946 191.794 115.202 193.201 115.202C194.249 115.202 195.132 115.023 195.848 114.665C196.564 114.307 196.922 113.77 196.922 113.054C196.922 112.44 196.653 111.954 196.116 111.596C195.579 111.212 194.62 110.944 193.239 110.79L191.59 110.637C189.058 110.356 187.152 109.652 185.874 108.527C184.62 107.402 183.994 105.931 183.994 104.115C183.994 102.632 184.365 101.392 185.106 100.394C185.874 99.3968 186.909 98.6423 188.214 98.1308C189.518 97.6193 191.014 97.3635 192.702 97.3635C195.413 97.3635 197.587 97.9646 199.224 99.1666C200.886 100.343 201.768 102.057 201.871 104.307H196.423C196.321 103.642 195.95 103.067 195.311 102.581C194.697 102.095 193.802 101.852 192.625 101.852C191.679 101.852 190.925 102.031 190.362 102.389C189.799 102.747 189.518 103.233 189.518 103.847C189.518 104.435 189.761 104.883 190.247 105.189C190.733 105.496 191.526 105.714 192.625 105.842L194.275 105.995C196.832 106.276 198.827 107.005 200.259 108.182C201.717 109.333 202.446 110.867 202.446 112.785C202.446 114.908 201.602 116.583 199.914 117.811C198.226 119.038 195.95 119.652 193.086 119.652Z" fill="#F1FAEE"/>
<path d="M1 0L1 142" stroke="#F1FAEE" stroke-width="2"/>
</svg>
